# Blender3D v248 OBJ File: finishLine.blend
# www.blender3d.org
mtllib finishLine.mtl
o Cube.002_Cube.005
v 3.014264 3.526217 -0.046561
v 3.014264 3.526217 0.046560
v -3.025703 3.526217 0.046560
v -3.025702 3.526217 -0.046561
v 3.014266 4.535081 -0.046561
v 3.014262 4.535081 0.046560
v -3.025704 4.535081 0.046560
v -3.025703 4.535081 -0.046561
vt 0.000000 0.000000 0.0
vt 1.000000 0.000000 0.0
vt 1.000000 1.000000 0.0
vt 0.000000 0.000000 0.0
vt 1.000000 1.000000 0.0
vt 0.000000 1.000000 0.0
vt 0.000000 0.000000 0.0
vt 1.000000 0.000000 0.0
vt 0.000000 1.000000 0.0
vt 1.000000 0.000000 0.0
vt 1.000000 1.000000 0.0
vt 0.000000 1.000000 0.0
vt 0.997141 1.000000 0.0
vt -0.002860 1.000000 0.0
vt 0.997140 -0.000000 0.0
vt 0.997140 0.000000 0.0
vt 0.997140 -1.000000 0.0
vt -0.002860 -1.000000 0.0
vt 1.002281 0.475579 0.0
vt 1.002281 0.642169 0.0
vt 0.004920 0.475579 0.0
vt 1.002281 0.642169 0.0
vt 0.004920 0.642169 0.0
vt 0.004920 0.475579 0.0
vt 0.997141 0.015325 0.0
vt 0.997140 -0.984675 0.0
vt -0.002859 -0.984675 0.0
vt 0.997141 0.015325 0.0
vt -0.002859 -0.984675 0.0
vt -0.002860 0.015325 0.0
vt -0.002860 1.000000 0.0
vt -0.002860 0.000000 0.0
vt 0.997140 -0.000000 0.0
vt 0.997140 0.000000 0.0
vt -0.002860 -1.000000 0.0
vt -0.002859 0.000000 0.0
vn -1.000000 -0.000001 -0.000013
vn -1.000000 -0.000001 -0.000015
vn 1.000000 -0.000001 0.000000
vn 1.000000 0.000002 0.000036
vn 0.000000 1.000000 0.000000
vn -0.000000 -1.000000 0.000003
vn -0.000000 0.000000 1.000000
vn 0.000000 -0.000000 -1.000000
usemtl (null)
s off
f 3/1/1 7/2/1 8/3/1
f 3/4/2 8/5/2 4/6/2
f 1/7/3 5/8/3 2/9/3
f 5/10/4 6/11/4 2/12/4
usemtl None_white.tga
f 5/13/5 8/14/5 6/15/5
f 1/16/6 2/17/6 3/18/6
usemtl None_finishLine.tga
f 2/19/7 6/20/7 3/21/7
f 6/22/7 7/23/7 3/24/7
usemtl None_white.tga
f 5/25/8 1/26/8 4/27/8
f 5/28/8 4/29/8 8/30/8
f 8/31/5 7/32/5 6/33/5
f 1/34/6 3/35/6 4/36/6
o Cube.001_Cube.004
v 3.189436 -4.708618 -0.131203
v 3.189436 -4.708618 0.131203
v 2.927031 -4.708618 0.131203
v 2.927031 -4.708618 -0.131203
v 3.189436 4.748858 -0.131203
v 3.189436 4.748858 0.131203
v 2.927031 4.748858 0.131203
v 2.927031 4.748858 -0.131203
vt 0.000000 0.000000 0.0
vt 1.000000 0.000000 0.0
vt 1.000000 1.000000 0.0
vt 0.000000 0.000000 0.0
vt 1.000000 1.000000 0.0
vt 0.000000 1.000000 0.0
vt 0.679594 1.988943 0.0
vt 0.679594 -1.108660 0.0
vt 0.593649 -1.108660 0.0
vt 0.679594 1.988943 0.0
vt 0.593649 -1.108660 0.0
vt 0.593649 1.988943 0.0
vt 0.512164 -1.250878 0.0
vt 0.512164 2.131161 0.0
vt 0.606001 2.131161 0.0
vt 0.512164 -1.250878 0.0
vt 0.606001 2.131161 0.0
vt 0.606001 -1.250878 0.0
vt 0.679594 -1.108660 0.0
vt 0.679594 1.988943 0.0
vt 0.593649 -1.108660 0.0
vt 0.679594 1.988943 0.0
vt 0.593649 1.988943 0.0
vt 0.593649 -1.108660 0.0
vt 0.606001 -1.250878 0.0
vt 0.606001 2.131161 0.0
vt 0.512164 -1.250878 0.0
vt 0.606001 2.131161 0.0
vt 0.512164 2.131161 0.0
vt 0.512164 -1.250878 0.0
vt 0.000000 0.000000 0.0
vt 1.000000 0.000000 0.0
vt 0.000000 1.000000 0.0
vt 1.000000 0.000000 0.0
vt 1.000000 1.000000 0.0
vt 0.000000 1.000000 0.0
vn 0.000000 -1.000000 0.000000
vn -1.000000 0.000000 0.000000
vn 1.000000 0.000000 0.000000
usemtl (null)
s off
f 9/37/9 10/38/9 11/39/9
f 9/40/9 11/41/9 12/42/9
usemtl None_wood.tga
f 13/43/8 9/44/8 12/45/8
f 13/46/8 12/47/8 16/48/8
f 11/49/10 15/50/10 16/51/10
f 11/52/10 16/53/10 12/54/10
f 10/55/7 14/56/7 11/57/7
f 14/58/7 15/59/7 11/60/7
f 9/61/11 13/62/11 10/63/11
f 13/64/11 14/65/11 10/66/11
f 13/67/5 16/68/5 14/69/5
f 16/70/5 15/71/5 14/72/5
o Cube_Cube.001
v -2.895566 -4.737936 -0.122427
v -2.895566 -4.737936 0.122427
v -3.140421 -4.737936 0.122427
v -3.140421 -4.737936 -0.122427
v -2.895566 4.778176 -0.122427
v -2.895566 4.778176 0.122427
v -3.140421 4.778176 0.122427
v -3.140421 4.778176 -0.122427
vt 0.556147 3.729085 0.0
vt 0.556147 -4.272409 0.0
vt 0.298974 -4.272409 0.0
vt 0.556147 3.729085 0.0
vt 0.298974 -4.272409 0.0
vt 0.298974 3.729085 0.0
vt 0.389363 -3.382979 0.0
vt 0.389363 4.403102 0.0
vt 0.610637 4.403102 0.0
vt 0.389363 -3.382979 0.0
vt 0.610637 4.403102 0.0
vt 0.610637 -3.382979 0.0
vt 0.910818 -4.669500 0.0
vt 0.910818 5.808828 0.0
vt 0.442095 -4.669500 0.0
vt 0.910818 5.808828 0.0
vt 0.442095 5.808828 0.0
vt 0.442095 -4.669500 0.0
vt 0.648079 -0.622107 0.0
vt 0.472235 1.724518 0.0
vt 0.588463 -0.627364 0.0
vt 0.472235 1.724518 0.0
vt 0.412619 1.719261 0.0
vt 0.588463 -0.627364 0.0
vt 0.491003 1.000000 0.0
vt -0.508997 1.000000 0.0
vt 0.491003 -0.000000 0.0
vt -0.508997 1.000000 0.0
vt -0.508997 0.000000 0.0
vt 0.491003 -0.000000 0.0
vt 0.491003 0.000000 0.0
vt 0.491003 -1.000000 0.0
vt -0.508997 -1.000000 0.0
vt 0.491003 0.000000 0.0
vt -0.508997 -1.000000 0.0
vt -0.508997 0.000000 0.0
usemtl None_wood.tga
s off
f 21/73/8 17/74/8 20/75/8
f 21/76/8 20/77/8 24/78/8
f 19/79/10 23/80/10 24/81/10
f 19/82/10 24/83/10 20/84/10
f 18/85/7 22/86/7 19/87/7
f 22/88/7 23/89/7 19/90/7
f 17/91/11 21/92/11 18/93/11
f 21/94/11 22/95/11 18/96/11
f 21/97/5 24/98/5 22/99/5
f 24/100/5 23/101/5 22/102/5
f 17/103/9 18/104/9 19/105/9
f 17/106/9 19/107/9 20/108/9
