# Blender3D v248 OBJ File: milner.blend
# www.blender3d.org
mtllib milner.mtl
o No_Name
v 15.000000 4.000000 -5.000003
v 15.000000 0.000000 4.999997
v 15.000000 4.000000 4.999997
v 15.000000 -0.000000 -5.000003
v 15.000000 0.000000 4.999997
v 15.000000 4.000000 -5.000003
v 5.000000 4.000000 -5.000003
v 5.000000 0.000000 4.999997
v 5.000000 -0.000000 -5.000003
v 5.000000 4.000000 4.999997
v 5.000000 0.000000 4.999997
v 5.000000 4.000000 -5.000003
v 15.000000 4.000000 -5.000003
v 5.000000 -0.000000 -5.000003
v 15.000000 -0.000000 -5.000003
v 5.000000 4.000000 -5.000003
v 5.000000 -0.000000 -5.000003
v 15.000000 4.000000 -5.000003
v 15.000000 4.000000 4.999997
v 5.000000 0.000000 4.999997
v 5.000000 4.000000 4.999997
v 15.000000 0.000000 4.999997
v 5.000000 0.000000 4.999997
v 15.000000 4.000000 4.999997
v 15.000000 4.000000 -5.000003
v 5.000000 4.000000 4.999997
v 5.000000 4.000000 -5.000003
v 15.000000 4.000000 4.999997
v 5.000000 4.000000 4.999997
v 15.000000 4.000000 -5.000003
v 15.000000 -0.000000 -5.000003
v 5.000000 0.000000 4.999997
v 15.000000 0.000000 4.999997
v 5.000000 -0.000000 -5.000003
v 5.000000 0.000000 4.999997
v 15.000000 -0.000000 -5.000003
v -0.000000 3.999999 -15.000000
v -0.000000 -0.000000 -5.000000
v -0.000000 4.000000 -5.000000
v -0.000000 -0.000001 -15.000000
v -0.000000 -0.000000 -5.000000
v -0.000000 3.999999 -15.000000
v -10.000000 3.999999 -14.944401
v -10.000000 -0.000000 -4.944401
v -10.000000 -0.000001 -14.944401
v -10.000000 4.000000 -5.000000
v -10.000000 -0.000000 -5.000000
v -10.000000 3.999999 -15.000000
v -0.000000 3.999999 -15.000000
v -10.000000 -0.000001 -15.000000
v -0.000000 -0.000001 -15.000000
v -10.000000 3.999999 -15.000000
v -10.000000 -0.000001 -15.000000
v -0.000000 3.999999 -15.000000
v -0.000000 4.000000 -5.000000
v -10.000000 -0.000000 -5.000000
v -10.000000 4.000000 -5.000000
v -0.000000 -0.000000 -5.000000
v -10.000000 -0.000000 -5.000000
v -0.000000 4.000000 -5.000000
v -0.000000 3.999999 -15.000000
v -10.000000 4.000000 -5.000000
v -10.000000 3.999999 -15.000000
v -0.000000 4.000000 -5.000000
v -10.000000 4.000000 -5.000000
v -0.000000 3.999999 -15.000000
v -0.000000 -0.000001 -15.000000
v -10.000000 -0.000000 -5.000000
v -0.000000 -0.000000 -5.000000
v -10.000000 -0.000001 -15.000000
v -10.000000 -0.000000 -5.000000
v -0.000000 -0.000001 -15.000000
v -5.000000 4.000001 20.000000
v 1.000000 3.999999 -15.000000
v -5.000000 3.999999 -15.000000
v 1.000000 4.000001 20.000000
v 1.000000 3.999999 -15.000000
v -5.000000 4.000001 20.000000
v -5.000000 4.000001 20.000000
v -5.000000 6.500001 20.000000
v 1.000000 4.000001 20.000000
v 1.000000 3.999999 -15.000000
v -5.000000 6.500000 -15.000000
v -5.000000 3.999999 -15.000000
v -5.000000 4.000001 20.000000
v -5.000000 6.500000 -15.000000
v -5.000000 6.500001 20.000000
v -5.000000 3.999999 -15.000000
v -5.000000 6.500000 -15.000000
v -5.000000 4.000001 20.000000
v 1.000000 4.000001 20.000000
v -5.000000 6.500000 -15.000000
v 1.000000 3.999999 -15.000000
v -5.000000 6.500001 20.000000
v -5.000000 6.500000 -15.000000
v 1.000000 4.000001 20.000000
v -5.000000 4.000001 20.000000
v -11.000000 3.999999 -15.000000
v -5.000000 3.999999 -15.000000
v -11.000000 4.000001 20.000000
v -11.000000 3.999999 -15.000000
v -5.000000 4.000001 20.000000
v -5.000000 4.000001 20.000000
v -5.000000 6.500001 20.000000
v -11.000000 4.000001 20.000000
v -11.000000 3.999999 -15.000000
v -5.000000 6.500000 -15.000000
v -5.000000 3.999999 -15.000000
v -5.000000 4.000001 20.000000
v -5.000000 6.500000 -15.000000
v -5.000000 6.500001 20.000000
v -5.000000 3.999999 -15.000000
v -5.000000 6.500000 -15.000000
v -5.000000 4.000001 20.000000
v -11.000000 4.000001 20.000000
v -5.000000 6.500000 -15.000000
v -11.000000 3.999999 -15.000000
v -5.000000 6.500001 20.000000
v -5.000000 6.500000 -15.000000
v -11.000000 4.000001 20.000000
v 15.000000 4.000000 -0.000000
v -5.000000 4.000000 5.999999
v -5.000000 4.000000 -0.000001
v 15.000000 4.000000 6.000000
v -5.000000 4.000000 5.999999
v 15.000000 4.000000 -0.000000
v 15.000000 4.000000 -0.000000
v 15.000000 6.500000 -0.000000
v 15.000000 4.000000 6.000000
v -5.000000 4.000000 5.999999
v -5.000000 6.500000 -0.000001
v -5.000000 4.000000 -0.000001
v 15.000000 4.000000 -0.000000
v -5.000000 6.500000 -0.000001
v 15.000000 6.500000 -0.000000
v -5.000000 4.000000 -0.000001
v -5.000000 6.500000 -0.000001
v 15.000000 4.000000 -0.000000
v 15.000000 4.000000 6.000000
v -5.000000 6.500000 -0.000001
v -5.000000 4.000000 5.999999
v 15.000000 6.500000 -0.000000
v -5.000000 6.500000 -0.000001
v 15.000000 4.000000 6.000000
v 15.000000 4.000000 -0.000000
v -5.000000 4.000000 -5.999999
v -5.000000 4.000000 0.000001
v 15.000000 4.000000 -6.000000
v -5.000000 4.000000 -5.999999
v 15.000000 4.000000 -0.000000
v 15.000000 4.000000 -0.000000
v 15.000000 6.500000 -0.000000
v 15.000000 4.000000 -6.000000
v -5.000000 4.000000 -5.999999
v -5.000000 6.500000 0.000001
v -5.000000 4.000000 0.000001
v 15.000000 4.000000 -0.000000
v -5.000000 6.500000 0.000001
v 15.000000 6.500000 -0.000000
v -5.000000 4.000000 0.000001
v -5.000000 6.500000 0.000001
v 15.000000 4.000000 -0.000000
v 15.000000 4.000000 -6.000000
v -5.000000 6.500000 0.000001
v -5.000000 4.000000 -5.999999
v 15.000000 6.500000 -0.000000
v -5.000000 6.500000 0.000001
v 15.000000 4.000000 -6.000000
v 5.000000 4.000000 -5.000000
v -10.000000 -0.000000 -5.000000
v 5.000000 -0.000000 -5.000000
v -10.000000 4.000000 -5.000000
v -10.000000 -0.000000 -5.000000
v 5.000000 4.000000 -5.000000
v 5.000000 -0.000000 -5.000000
v 5.000000 4.000000 11.000000
v 5.000000 4.000000 -5.000000
v 5.000000 0.000001 11.000000
v 5.000000 4.000000 11.000000
v 5.000000 -0.000000 -5.000000
v -10.000000 4.000000 -5.000000
v -10.000000 0.000001 11.000000
v -10.000000 -0.000000 -5.000000
v -10.000000 4.000000 11.000000
v -10.000000 0.000001 11.000000
v -10.000000 4.000000 -5.000000
v 5.000000 4.000000 -5.000000
v -10.000000 4.000000 11.000000
v -10.000000 4.000000 -5.000000
v 5.000000 4.000000 11.000000
v -10.000000 4.000000 11.000000
v 5.000000 4.000000 -5.000000
v -10.000000 -0.000000 -5.000000
v 5.000000 0.000001 11.000000
v 5.000000 -0.000000 -5.000000
v -10.000000 0.000001 11.000000
v 5.000000 0.000001 11.000000
v -10.000000 -0.000000 -5.000000
v 5.000000 0.000001 11.000000
v -10.000000 4.000000 11.000000
v 5.000000 4.000000 11.000000
v -10.000000 0.000001 11.000000
v -10.000000 4.000000 11.000000
v 5.000000 0.000001 11.000000
v 5.000000 4.000001 20.000000
v -10.000000 0.000001 20.000000
v -10.000000 4.000001 20.000000
v 5.000000 0.000001 20.000000
v -10.000000 0.000001 20.000000
v 5.000000 4.000001 20.000000
v 5.000000 4.000000 11.000000
v 5.000000 0.000001 20.000000
v 5.000000 4.000001 20.000000
v 5.000000 0.000001 11.000000
v 5.000000 0.000001 20.000000
v 5.000000 4.000000 11.000000
v -10.000000 4.000000 11.000000
v -10.000000 0.000001 20.000000
v -10.000000 0.000001 11.000000
v -10.000000 4.000001 20.000000
v -10.000000 0.000001 20.000000
v -10.000000 4.000000 11.000000
v 5.000000 4.000000 11.000000
v -10.000000 4.000001 20.000000
v -10.000000 4.000000 11.000000
v 5.000000 4.000001 20.000000
v -10.000000 4.000001 20.000000
v 5.000000 4.000000 11.000000
v 5.000000 0.000001 11.000000
v -10.000000 0.000001 20.000000
v 5.000000 0.000001 20.000000
v -10.000000 0.000001 11.000000
v -10.000000 0.000001 20.000000
v 5.000000 0.000001 11.000000
v 5.000000 0.000001 11.000000
v -10.000000 4.000000 11.000000
v -10.000000 0.000001 11.000000
v 5.000000 4.000000 11.000000
v -10.000000 4.000000 11.000000
v 5.000000 0.000001 11.000000
v -4.072217 2.371113 -15.000000
v -0.000000 2.376820 -15.000000
v -10.000000 2.362803 -15.000000
v -4.072217 2.371113 -15.000000
v -4.102605 -0.000001 -15.000000
v -4.102061 2.359175 -15.000000
v -4.102061 2.359175 -15.000000
v -4.102058 2.371071 -15.000000
v -4.102333 1.179587 -15.000000
v -5.447612 -0.000001 -15.000000
v -5.454962 1.818015 -15.000000
v -5.454962 1.818015 -15.000000
v -5.457190 2.369171 -15.000000
v -5.451287 0.909007 -15.000000
vt -0.022399 0.852193 0.0
vt -0.699965 0.853267 0.0
vt -0.699946 0.859215 0.0
vt -0.022399 0.852193 0.0
vt -0.699946 0.859215 0.0
vt -0.022690 1.127773 0.0
vt 0.301948 1.446018 0.0
vt 0.976826 1.579292 0.0
vt 0.977305 1.124785 0.0
vt 0.301948 1.446018 0.0
vt 0.977305 1.124785 0.0
vt 0.300049 0.856227 0.0
vt 0.300858 1.035813 0.0
vt 0.973359 1.033804 0.0
vt 0.973838 0.579296 0.0
vt 0.300858 1.035813 0.0
vt 0.973838 0.579296 0.0
vt 0.298960 0.446022 0.0
vt 0.578854 -1.424961 0.0
vt -1.944489 0.940673 0.0
vt -1.944489 -1.424961 0.0
vt 0.578854 0.940673 0.0
vt 0.578854 -0.478708 0.0
vt 2.944489 0.940673 0.0
vt 0.814291 2.157782 0.0
vt -1.944489 2.157782 0.0
vt 0.084026 0.940673 0.0
vt -8.112566 -4.566616 0.0
vt -8.112568 -8.018163 0.0
vt -4.876740 -4.566618 0.0
vt -4.661020 -1.330789 0.0
vt -8.112568 -1.330789 0.0
vt -4.661020 -4.566616 0.0
vt -1.425191 -7.802442 0.0
vt -4.876739 -4.566616 0.0
vt -4.876740 -7.802442 0.0
vt -1.527839 6.379146 0.0
vt -4.763666 6.379146 0.0
vt -1.527839 5.516258 0.0
vt -4.763666 6.350012 0.0
vt -8.112568 6.350010 0.0
vt -7.890235 5.516258 0.0
vt -1.425191 -4.566616 0.0
vt -1.425191 -7.802443 0.0
vt 0.516305 -4.566616 0.0
vt 3.211283 0.334030 0.0
vt -0.562307 0.334030 0.0
vt 0.436585 -1.330789 0.0
vt -1.527839 7.212898 0.0
vt -1.527839 6.350012 0.0
vt 1.707988 7.212898 0.0
vt 1.821063 6.350012 0.0
vt -1.527839 6.350012 0.0
vt 1.598729 5.516258 0.0
vt 6.589597 -1.873609 0.0
vt 7.474171 -2.209318 0.0
vt 7.467945 -1.859219 0.0
vt -2.339630 7.062670 0.0
vt -2.333195 7.062495 0.0
vt -2.339564 7.065236 0.0
vt -2.339630 7.062670 0.0
vt -3.620599 6.744265 0.0
vt -1.464101 6.688530 0.0
vt -2.333195 7.062495 0.0
vt -2.339630 7.062670 0.0
vt -1.464101 6.688530 0.0
vt -2.339630 7.062670 0.0
vt -2.631853 7.070633 0.0
vt -3.620599 6.744265 0.0
vt -2.631853 7.070633 0.0
vt -3.611474 7.097326 0.0
vt -3.620599 6.744265 0.0
vt -3.611474 7.097326 0.0
vt -2.631854 7.070633 0.0
vt -2.628301 7.189477 0.0
vt -3.611474 7.097326 0.0
vt -2.628301 7.189477 0.0
vt -3.598305 7.606864 0.0
vt 5.301953 -1.384928 0.0
vt 6.289235 -1.759616 0.0
vt 6.283846 -1.367465 0.0
vt 6.289235 -1.759616 0.0
vt 6.286540 -1.563541 0.0
vt 6.283846 -1.367465 0.0
vt 7.467945 -1.859219 0.0
vt 6.578530 -1.616727 0.0
vt 6.589597 -1.873609 0.0
vt 6.578530 -1.616727 0.0
vt 6.583114 -1.871148 0.0
vt 6.589597 -1.873609 0.0
vt 7.458827 -1.346568 0.0
vt 6.573947 -1.362306 0.0
vt 6.578530 -1.616727 0.0
vt 7.458827 -1.346568 0.0
vt 6.578530 -1.616727 0.0
vt 7.467945 -1.859219 0.0
vt 0.656057 0.218088 0.0
vt -3.083980 0.218088 0.0
vt 0.656057 1.215432 0.0
vt 0.656057 1.215432 0.0
vt -3.083980 0.218088 0.0
vt -3.083980 1.215432 0.0
vt 3.772588 1.261012 0.0
vt -0.373641 1.261012 0.0
vt 3.772588 0.224456 0.0
vt 3.772588 0.224456 0.0
vt -0.373641 1.261012 0.0
vt -0.373641 0.224456 0.0
vt 2.064689 0.288756 0.0
vt -1.792289 0.288756 0.0
vt 2.064689 1.253001 0.0
vt 2.064689 1.253001 0.0
vt -1.792289 0.288756 0.0
vt -1.792289 1.253001 0.0
vt -2.486048 1.237923 0.0
vt -2.486048 0.280339 0.0
vt 1.104894 1.237923 0.0
vt 1.104894 1.237923 0.0
vt -2.486048 0.280339 0.0
vt 1.104894 0.280339 0.0
vt -2.705896 1.261012 0.0
vt -2.705896 0.224456 0.0
vt -0.373641 1.261012 0.0
vt -0.373641 1.261012 0.0
vt -2.705896 0.224456 0.0
vt -0.373641 0.224456 0.0
vt -1.792289 0.288756 0.0
vt -3.961840 0.288756 0.0
vt -1.792289 1.253001 0.0
vt -1.792289 1.253001 0.0
vt -3.961840 0.288756 0.0
vt -3.961840 1.253001 0.0
vt 32.228073 12.214161 0.0
vt 32.228073 24.028109 0.0
vt -31.385527 12.214161 0.0
vt -31.385527 -23.286169 0.0
vt 32.385529 -11.442981 0.0
vt -31.385527 -11.442981 0.0
vt 32.228073 12.214161 0.0
vt -31.385527 12.214161 0.0
vt 32.228073 0.400208 0.0
vt -31.385523 0.400208 0.0
vt -31.385527 -11.442981 0.0
vt 32.385529 -11.442981 0.0
vt -17.175146 0.580949 0.0
vt 17.698053 0.580946 0.0
vt -17.175146 11.914740 0.0
vt 17.947115 -22.248524 0.0
vt 17.947115 -10.833791 0.0
vt -17.175146 -10.833788 0.0
vt -17.175146 23.248524 0.0
vt -17.175146 11.914740 0.0
vt 17.698053 23.248524 0.0
vt 17.947115 0.580946 0.0
vt -17.175146 -10.833785 0.0
vt 17.947115 -10.833788 0.0
vt 3.149415 0.218088 0.0
vt 0.656057 0.218088 0.0
vt 3.149415 1.215432 0.0
vt 3.149415 1.215432 0.0
vt 0.656057 0.218088 0.0
vt 0.656057 1.215432 0.0
vt 1.104894 1.237923 0.0
vt 1.104894 0.280339 0.0
vt 3.498855 1.237923 0.0
vt 3.498855 1.237923 0.0
vt 1.104894 0.280339 0.0
vt 3.498855 0.280339 0.0
vt 4.461899 0.288756 0.0
vt 2.051286 0.288756 0.0
vt 4.461899 1.253001 0.0
vt 4.475301 1.253001 0.0
vt 2.064689 0.288756 0.0
vt 2.064689 1.253001 0.0
vt -5.875851 7.776046 0.0
vt -3.718633 8.638934 0.0
vt -5.875851 8.638934 0.0
vt 8.388514 1.257875 0.0
vt 6.231295 0.394989 0.0
vt 8.388514 0.394989 0.0
vt 7.470406 2.059046 0.0
vt 5.467479 1.257875 0.0
vt 7.790874 1.257875 0.0
vt 7.881505 6.154458 0.0
vt 5.724287 7.017346 0.0
vt 5.724287 6.154458 0.0
vt 5.467479 2.783258 0.0
vt 3.942096 2.783258 0.0
vt 5.467479 1.257875 0.0
vt 5.539227 5.317334 0.0
vt 2.488460 5.317334 0.0
vt 4.013842 3.791952 0.0
vt 5.909348 -4.566616 0.0
vt 4.830741 -5.645224 0.0
vt 6.987958 -5.645224 0.0
vt 5.368502 -1.823187 0.0
vt 3.211283 0.334030 0.0
vt 3.211283 -1.823187 0.0
vt -0.219100 8.458548 0.0
vt -0.147527 7.598635 0.0
vt 1.930683 8.637482 0.0
vt -1.527839 8.638934 0.0
vt -3.685057 7.776046 0.0
vt -1.527839 7.776046 0.0
vt -8.112568 8.938672 0.0
vt -8.112568 8.075786 0.0
vt -5.955351 8.938672 0.0
vt 1.707988 8.075786 0.0
vt -0.449230 7.212898 0.0
vt 1.707988 7.212898 0.0
vt 6.125068 -2.318807 0.0
vt 5.046461 -3.397416 0.0
vt 7.203677 -3.397416 0.0
vt 2.488460 5.317334 0.0
vt -0.562307 5.317334 0.0
vt 0.963077 3.791952 0.0
vt 5.909350 -6.508112 0.0
vt 4.830741 -7.586719 0.0
vt 6.987958 -7.586719 0.0
vt 5.046461 -4.476025 0.0
vt 2.889241 -2.318807 0.0
vt 2.889241 -4.476025 0.0
vt -0.562307 1.257875 0.0
vt -0.562307 2.552206 0.0
vt -8.112568 1.257875 0.0
vt -8.112568 -0.036457 0.0
vt -0.562307 1.257875 0.0
vt -8.112568 1.257875 0.0
vt 7.711561 -6.114104 0.0
vt 6.392877 -5.637437 0.0
vt 6.418717 -6.176124 0.0
vt 5.018040 -6.032072 0.0
vt 4.980884 -6.570094 0.0
vt 6.309295 -6.121244 0.0
vt -8.112568 4.528241 0.0
vt -0.562307 4.528241 0.0
vt -8.067046 5.516258 0.0
vt -4.661020 -1.330789 0.0
vt 2.843720 -2.318807 0.0
vt 2.889241 -1.330789 0.0
vt 2.889241 -4.566616 0.0
vt 2.889241 -3.272285 0.0
vt -4.661020 -4.566614 0.0
vt -8.112568 -1.330789 0.0
vt -0.562307 -0.036457 0.0
vt -8.112568 -0.036457 0.0
vt 3.672356 -5.806566 0.0
vt 4.966636 -5.795127 0.0
vt 4.961871 -5.255845 0.0
vt -0.842068 3.983588 0.0
vt 0.450679 3.919578 0.0
vt -0.815398 4.522231 0.0
vt -8.112568 3.540223 0.0
vt -0.562307 3.540223 0.0
vt -8.067046 4.528241 0.0
vt -8.112568 3.540223 0.0
vt -0.607828 2.552206 0.0
vt -0.562307 3.540223 0.0
vt 0.516305 -4.566616 0.0
vt 0.516305 -5.860947 0.0
vt 4.830741 -4.566616 0.0
vt 3.752129 3.791952 0.0
vt -0.562307 2.497621 0.0
vt 3.752129 2.497621 0.0
vt 4.549190 -5.680429 0.0
vt 5.840843 -5.597229 0.0
vt 5.806177 -5.059040 0.0
vt 8.031237 7.082673 0.0
vt 8.238663 7.580493 0.0
vt 6.836470 7.580493 0.0
vt 6.765986 7.580493 0.0
vt 2.488460 7.017346 0.0
vt 6.836470 7.017346 0.0
vt -1.527839 7.776044 0.0
vt -5.875851 7.776046 0.0
vt -5.805364 7.212898 0.0
vt 0.516305 -6.508112 0.0
vt 0.516305 -7.802443 0.0
vt 4.830741 -6.508112 0.0
vt 3.942096 2.497620 0.0
vt -0.562307 2.497621 0.0
vt 3.570173 1.257875 0.0
vt 6.833558 3.915143 0.0
vt 5.539227 4.454447 0.0
vt 5.539227 3.915143 0.0
vt 7.040983 4.412962 0.0
vt 6.833558 3.915143 0.0
vt 8.235747 3.915143 0.0
vt 4.793829 -5.860947 0.0
vt 0.516305 -6.424092 0.0
vt 4.864316 -6.424093 0.0
vt 6.836472 8.143638 0.0
vt 2.488460 8.143641 0.0
vt 2.558947 7.580493 0.0
vn 0.000000 0.000000 -1.000000
vn 0.000000 1.000000 -0.000000
vn 0.000000 -1.000000 0.000000
vn 0.000000 0.000000 1.000000
vn 1.000000 0.000000 0.000000
vn -1.000000 0.000000 0.000000
vn 0.384615 0.923077 -0.000000
vn -0.384615 0.923077 -0.000000
vn -0.000000 0.923077 0.384615
vn -0.000000 0.923077 -0.384615
usemtl None_door.jpg
s off
f 253/1/1 248/2/1 247/3/1
f 253/4/1 247/5/1 252/6/1
f 249/7/1 254/8/1 251/9/1
f 249/10/1 251/11/1 246/12/1
f 245/13/1 250/14/1 254/15/1
f 245/16/1 254/17/1 249/18/1
usemtl None_buildingTop.jpg
f 192/19/2 191/20/2 190/21/2
f 225/22/2 224/23/2 223/24/2
f 228/25/2 227/26/2 226/27/2
usemtl None_brick.png
f 189/28/2 188/29/2 187/30/2
f 195/31/3 194/32/3 193/33/3
f 198/34/3 197/35/3 196/36/3
f 201/37/4 200/38/4 199/39/4
f 204/40/4 203/41/4 202/42/4
f 231/43/3 230/44/3 229/45/3
f 234/46/3 233/47/3 232/48/3
f 237/49/1 236/50/1 235/51/1
f 240/52/1 239/53/1 238/54/1
f 241/55/1 49/56/1 242/57/1
f 248/58/1 244/59/1 247/60/1
f 248/61/1 52/62/1 54/63/1
f 244/64/1 248/65/1 54/66/1
f 248/67/1 253/68/1 52/69/1
f 253/70/1 243/71/1 52/72/1
f 243/73/1 253/74/1 252/75/1
f 243/76/1 252/77/1 53/78/1
f 50/79/1 251/80/1 250/81/1
f 251/82/4 254/83/4 250/84/4
f 242/85/1 249/86/1 241/87/1
f 249/88/1 246/89/1 241/90/1
f 51/91/1 245/92/1 249/93/1
f 51/94/1 249/95/1 242/96/1
usemtl None_brockBrickWindow.png
f 171/97/1 170/98/1 169/99/1
f 174/100/1 173/101/1 172/102/1
f 177/103/5 176/104/5 175/105/5
f 180/106/5 179/107/5 178/108/5
f 183/109/6 182/110/6 181/111/6
f 186/112/6 185/113/6 184/114/6
f 207/115/4 206/116/4 205/117/4
f 210/118/4 209/119/4 208/120/4
f 213/121/5 212/122/5 211/123/5
f 216/124/5 215/125/5 214/126/5
f 219/127/6 218/128/6 217/129/6
f 222/130/6 221/131/6 220/132/6
usemtl None_shingledRoof.jpg
f 93/133/7 92/134/7 91/135/7
f 96/136/7 95/137/7 94/138/7
f 117/139/8 115/140/8 116/141/8
f 120/142/8 118/143/8 119/144/8
f 141/145/9 139/146/9 140/147/9
f 144/148/9 142/149/9 143/150/9
f 165/151/10 164/152/10 163/153/10
f 168/154/10 167/155/10 166/156/10
usemtl None_brockBrickWindow.png
f 15/157/1 14/158/1 13/159/1
f 18/160/1 17/161/1 16/162/1
f 21/163/4 20/164/4 19/165/4
f 24/166/4 23/167/4 22/168/4
f 45/169/6 44/170/6 43/171/6
f 48/172/6 47/173/6 46/174/6
usemtl None_brick.png
f 2/175/5 1/176/5 3/177/5
f 6/178/5 5/179/5 4/180/5
f 9/181/6 8/182/6 7/183/6
f 12/184/6 11/185/6 10/186/6
f 27/187/2 26/188/2 25/189/2
f 30/190/2 29/191/2 28/192/2
f 33/193/3 32/194/3 31/195/3
f 36/196/3 35/197/3 34/198/3
f 39/199/5 38/200/5 37/201/5
f 42/202/5 41/203/5 40/204/5
f 57/205/4 56/206/4 55/207/4
f 60/208/4 59/209/4 58/210/4
f 63/211/2 62/212/2 61/213/2
f 66/214/2 65/215/2 64/216/2
f 69/217/3 68/218/3 67/219/3
f 72/220/3 71/221/3 70/222/3
f 75/223/3 74/224/3 73/225/3
f 78/226/3 77/227/3 76/228/3
f 81/229/4 80/230/4 79/231/4
f 84/232/1 83/233/1 82/234/1
f 87/235/6 86/236/6 85/237/6
f 90/238/6 89/239/6 88/240/6
f 99/241/2 98/242/2 97/243/2
f 102/244/2 101/245/2 100/246/2
f 105/247/4 103/248/4 104/249/4
f 108/250/1 106/251/1 107/252/1
f 111/253/6 110/254/6 109/255/6
f 114/256/6 113/257/6 112/258/6
f 123/259/2 122/260/2 121/261/2
f 126/262/2 125/263/2 124/264/2
f 129/265/5 127/266/5 128/267/5
f 132/268/5 131/269/5 130/270/5
f 135/271/4 134/272/4 133/273/4
f 138/274/4 137/275/4 136/276/4
f 147/277/3 146/278/3 145/279/3
f 150/280/3 149/281/3 148/282/3
f 153/283/5 152/284/5 151/285/5
f 156/286/6 155/287/6 154/288/6
f 159/289/4 158/290/4 157/291/4
f 162/292/4 161/293/4 160/294/4
