# Blender3D v247 OBJ File: patterson.blend
# www.blender3d.org
mtllib patterson.mtl
o Cube_Cube.001
v 0.199249 -0.038628 -3.124343
v 0.211037 -0.038628 2.178221
v -1.462405 -0.038628 2.181940
v -1.474193 -0.038628 -3.120624
v 0.199250 1.011118 -3.124342
v 0.211037 1.000000 2.178222
v -1.462405 1.000000 2.181940
v -1.474193 1.000000 -3.120623
v 0.208856 -0.038628 1.197246
v -1.464586 -0.038628 1.200966
v 0.208856 1.236170 1.197248
v -1.464586 1.000000 1.200965
v 1.409183 1.236171 1.194580
v 1.409184 -0.038628 1.194579
v 1.411364 1.000000 2.175555
v 1.411364 -0.038628 2.175553
v -0.617317 -0.038628 2.180062
v -0.629104 -0.038628 -3.122502
v -0.617317 1.000000 2.180062
v -0.629104 1.354255 -3.122501
v -0.619498 1.354255 1.199088
v 0.208616 -0.038628 1.089206
v -1.464826 -0.038628 1.092926
v 0.208616 1.005492 1.089208
v -1.464826 1.000000 1.092926
v -0.619738 1.354255 1.091048
v -0.385378 -0.038628 2.179546
v -0.397165 -0.038628 -3.123018
v -0.385378 1.000000 2.179547
v -0.397165 1.258177 -3.123017
v -0.387559 1.321192 1.198573
v -0.387799 1.256602 1.090533
v -0.845491 -0.038628 2.180569
v -0.857278 -0.038628 -3.121995
v -0.845491 1.000000 2.180569
v -0.857278 1.258606 -3.121994
v -0.847672 1.258606 1.199595
v -0.847912 1.258606 1.091555
v 0.211037 0.890944 2.178222
v 0.199250 0.900895 -3.124342
v -1.462405 0.890944 2.181940
v -1.474193 0.890944 -3.120623
v 0.208856 1.102316 1.197247
v -1.464586 0.890944 1.200965
v 1.409183 1.102317 1.194580
v 1.411364 0.890945 2.175554
v -0.617317 0.890944 2.180062
v -0.629104 1.208003 -3.122501
v 0.208616 0.895860 1.089208
v -1.464826 0.890944 1.092926
v -0.385378 0.890944 2.179547
v -0.397165 1.122012 -3.123017
v -0.845491 0.890944 2.180569
v -0.857278 1.122397 -3.121994
v -0.087170 -0.038628 2.178883
v -0.098958 -0.038628 -3.123680
v -0.087171 1.000000 2.178884
v -0.098958 1.134648 -3.123679
v -0.089351 1.278681 1.197910
v -0.089592 1.131047 1.089870
v -0.087171 0.890944 2.178884
v -0.098958 1.011454 -3.123680
v 0.388905 1.236170 1.196847
v 0.388906 -0.038628 1.196846
v 0.391086 1.000000 2.177822
v 0.391086 -0.038628 2.177820
v 0.388905 1.102316 1.196847
v 0.391086 0.890944 2.177822
v 0.608265 1.236170 1.196360
v 0.608265 -0.038628 1.196359
v 0.610446 1.000000 2.177335
v 0.610446 -0.038628 2.177333
v 0.608265 1.102316 1.196360
v 0.610446 0.890944 2.177334
v 1.172912 1.236171 1.195105
v 1.172913 -0.038628 1.195104
v 1.175093 1.000000 2.176080
v 1.175094 -0.038628 2.176078
v 1.172912 1.102317 1.195105
v 1.175093 0.890944 2.176080
v 0.211037 0.505172 2.178221
v 0.199250 0.510993 -3.124342
v -1.462405 0.505172 2.181940
v -1.474193 0.505172 -3.120624
v 0.208856 0.628825 1.197247
v -1.464586 0.505172 1.200966
v 1.409183 0.628825 1.194579
v 1.411364 0.505172 2.175554
v -0.617317 0.505172 2.180062
v -0.629104 0.690651 -3.122502
v 0.208616 0.508047 1.089207
v -1.464826 0.505172 1.092926
v -0.385378 0.505172 2.179546
v -0.397165 0.640347 -3.123017
v -0.845491 0.505172 2.180569
v -0.857278 0.640571 -3.121994
v -0.087170 0.505172 2.178884
v -0.098958 0.575670 -3.123680
v 0.388905 0.628825 1.196847
v 0.391086 0.505172 2.177821
v 0.608265 0.628825 1.196359
v 0.610446 0.505172 2.177334
v 1.172912 0.628825 1.195105
v 1.175093 0.505172 2.176079
v 0.207352 -0.038628 0.520377
v -1.466090 -0.038628 0.524097
v 0.207351 1.006252 0.520379
v -1.466091 1.000000 0.524097
v -0.621002 1.354255 0.522219
v -0.389063 1.256814 0.521704
v -0.849176 1.258606 0.522726
v 0.207351 0.896539 0.520378
v -1.466091 0.890944 0.524097
v -0.090856 1.131533 0.521041
v 0.207352 0.508445 0.520378
v -1.466090 0.505172 0.524097
v 0.205650 -0.038628 -0.245014
v -1.467792 -0.038628 -0.241295
v 0.205650 1.007274 -0.245013
v -1.467792 1.000000 -0.241295
v -0.622704 1.354255 -0.243172
v -0.390765 1.257100 -0.243688
v -0.850878 1.258606 -0.242665
v 0.205650 0.897454 -0.245013
v -1.467792 0.890944 -0.241295
v -0.092557 1.132187 -0.244350
v 0.205650 0.508980 -0.245013
v -1.467792 0.505172 -0.241295
v 0.200786 -0.038628 -2.433304
v -1.472656 -0.038628 -2.429585
v 0.200786 1.010196 -2.433303
v -1.472657 1.000000 -2.429584
v -0.627568 1.354255 -2.431463
v -0.395629 1.257918 -2.431978
v -0.855742 1.258606 -2.430955
v 0.200786 0.900069 -2.433303
v -1.472657 0.890944 -2.429584
v -0.097422 1.134057 -2.432640
v 0.200786 0.510510 -2.433303
v -1.472656 0.505172 -2.429585
v 0.202415 -0.038628 -1.700227
v -1.471027 -0.038628 -1.696508
v 0.202415 1.009217 -1.700226
v -1.471027 1.000000 -1.696507
v -0.625939 1.354255 -1.698385
v -0.394000 1.257644 -1.698901
v -0.854113 1.258606 -1.697878
v 0.202415 0.899193 -1.700226
v -1.471027 0.890944 -1.696507
v -0.095792 1.133431 -1.699563
v 0.202415 0.509997 -1.700226
v -1.471027 0.505172 -1.696507
vt -0.110116 -15.554420
vt -3.194631 -15.561277
vt -0.107633 -16.671936
vt -3.192148 -16.678785
vt 2.974400 -15.547565
vt 2.976887 -16.665085
vt -0.085074 -26.818668
vt 2.999438 -26.811817
vt -3.169590 -26.825525
vt 1.092042 0.910679
vt 1.473467 0.910679
vt 1.473467 1.100306
vt 1.092042 1.100306
vt 1.088250 1.510961
vt 1.469675 1.510961
vt 1.088250 1.278215
vt 1.469675 1.278215
vt 0.778971 0.910678
vt 0.778971 1.100306
vt 0.775180 1.510961
vt 0.775180 1.278215
vt 0.239950 1.334433
vt 0.758476 1.119639
vt 0.239950 1.120222
vt 0.758476 0.927981
vt -0.278576 1.549227
vt -0.278576 1.312462
vt 0.260445 0.910678
vt 0.260445 1.100306
vt -0.258080 0.910678
vt -0.258080 1.100306
vt 12.971191 -26.789660
vt 15.415058 -26.784225
vt 12.948631 -16.642923
vt 15.392501 -16.637491
vt 7.130735 -26.802639
vt 7.108184 -16.655905
vt 4.861784 -26.807682
vt 4.839226 -16.660938
vt -7.953823 -15.571846
vt -14.334897 -15.586025
vt -7.951340 -16.689360
vt -14.332410 -16.703539
vt -5.593696 -15.566601
vt -5.591213 -16.684122
vt -7.928782 -26.836096
vt -5.568661 -26.830854
vt -14.309855 -26.850273
vt -0.681874 0.562407
vt -0.681874 1.461983
vt -0.278576 0.474938
vt -0.681874 -0.705669
vt -0.278576 -0.705669
vt -2.316559 0.327354
vt -2.316559 -0.658677
vt -2.512459 -0.658677
vt -2.512460 0.327354
vt -2.316559 1.026846
vt -2.512459 1.026846
vt -2.505717 0.551565
vt -2.505715 -0.658677
vt -2.309816 0.332568
vt -2.309814 -0.658677
vt -2.505718 1.410112
vt -2.309818 1.035759
vt -4.279607 0.327355
vt -4.279606 -0.658677
vt -2.500879 -0.658677
vt -2.500880 0.551565
vt -4.279608 1.026846
vt -2.500881 1.410112
vt -4.291186 -0.658677
vt -4.291186 0.327354
vt -4.291186 1.026846
vt 2.455281 0.910679
vt 2.866112 0.910679
vt 2.866112 1.100307
vt 2.455281 1.100307
vt 2.451489 1.510962
vt 2.862319 1.510962
vt 2.862319 1.278216
vt 2.451489 1.278216
vt 0.827943 0.593796
vt 0.827943 0.736983
vt 0.618363 0.593796
vt 0.618363 0.736983
vt 0.536943 0.593796
vt 0.536943 0.736983
vt 0.470114 0.593796
vt 0.470114 0.736983
vt 0.359429 0.593796
vt 0.359429 0.736983
vt 0.533696 0.561476
vt 0.543134 0.497505
vt 0.565195 0.566112
vt 0.574633 0.502142
vt 0.524259 0.625446
vt 0.555757 0.630083
vt 0.597214 0.570826
vt 0.606651 0.506855
vt 0.587776 0.634796
vt 5.323554 -0.658677
vt 4.070545 -0.658677
vt 5.323553 0.327354
vt 4.070544 0.327354
vt 5.323553 1.026846
vt 4.070543 1.026846
vt 4.077289 -0.658677
vt 5.330297 -0.658677
vt 4.077287 0.337033
vt 5.330297 0.337909
vt 4.077287 1.043392
vt 5.330296 1.044889
vt 4.070543 1.224589
vt 5.323553 1.224589
vt 4.077287 1.243076
vt 5.330296 1.244749
vt 0.102683 -0.658677
vt -1.285144 -0.658677
vt 0.102683 0.327354
vt -1.285144 0.327354
vt 2.866112 0.239895
vt 2.455281 0.239895
vt 0.917449 -0.007655
vt 0.917449 1.002762
vt 0.478442 -0.007655
vt 0.478441 1.002762
vt 2.455282 -0.705669
vt 1.473468 -0.705669
vt 1.473467 0.239894
vt 2.862319 0.454903
vt 2.862319 -0.705669
vt 2.451490 -0.705669
vt 2.451489 0.454903
vt 1.469675 -0.705669
vt 1.469675 0.454903
vt 1.092042 0.239894
vt 1.092043 -0.705670
vt 1.088251 -0.705670
vt 1.088250 0.454903
vt -3.258769 13.291310
vt -3.225310 -1.760731
vt -0.140791 -1.753871
vt -0.174253 13.298162
vt -3.275621 20.873911
vt -0.191106 20.880766
vt 2.943724 -1.747023
vt 2.910266 13.305015
vt 2.893406 20.887625
vt -14.399032 13.266553
vt -14.365569 -1.785480
vt -7.984499 -1.771302
vt -8.017961 13.280738
vt -14.415890 20.849155
vt -8.034812 20.863340
vt -5.624378 -1.766061
vt -5.657839 13.285978
vt -5.674693 20.868582
vt -3.291510 28.021698
vt -0.206995 28.028547
vt 2.877521 28.035400
vt -14.431779 27.996933
vt -8.050701 28.011112
vt -5.690581 28.016359
vt -3.207708 -9.677569
vt -0.123192 -9.670722
vt 2.961323 -9.663868
vt -14.347975 -9.702326
vt -7.966900 -9.688148
vt -5.606780 -9.682905
vt -1.278400 -0.658677
vt 0.109427 -0.658677
vt -1.278401 0.333288
vt 0.109425 0.334259
vt 0.102682 1.026846
vt -1.285144 1.026846
vt -1.285144 1.224589
vt 0.102682 1.224589
vt -1.278402 1.036991
vt 0.109424 1.038650
vt -1.278402 1.235925
vt 0.109424 1.237777
vt -2.316559 1.224589
vt -2.309818 1.234547
vt 0.242914 0.551628
vt 0.360538 0.553059
vt 0.242145 0.613448
vt 0.359769 0.614879
vt 0.636310 0.552565
vt 0.751300 0.561424
vt 0.630884 0.614688
vt 0.745869 0.623606
vt 0.594031 0.555898
vt 0.716840 0.557392
vt 0.593262 0.617718
vt 0.716071 0.619212
vt 0.287986 0.525727
vt 0.408045 0.534977
vt 0.282575 0.587675
vt 0.402629 0.596986
vt 2.741312 -0.658677
vt 2.741311 0.327354
vt 2.741310 1.026846
vt 2.748055 -0.658677
vt 2.748054 0.336104
vt 2.748054 1.041803
vt 2.741310 1.224589
vt 2.748053 1.241301
vt 0.778972 -0.705670
vt 0.778972 0.239894
vt 0.775180 -0.705670
vt 0.775180 0.454903
vt 0.758475 0.250016
vt 0.758475 -0.705669
vt 0.239949 -0.705669
vt 0.239949 0.362477
vt 0.260446 -0.705670
vt 0.260445 0.239894
vt -0.258080 0.239894
vt -0.258079 -0.705670
vt -2.151321 0.239894
vt -2.151321 0.910679
vt -1.078625 0.475329
vt -1.078625 1.313131
vt -2.151321 -0.705669
vt -1.078625 -0.705669
vt -2.130825 0.239894
vt -2.130825 -0.705670
vt -1.058128 0.239894
vt -1.058128 -0.705670
vt -2.130826 0.910678
vt -1.058129 0.910678
vt -2.151321 1.100306
vt -1.078625 1.549973
vt -0.681874 1.716288
vt -2.130826 1.100306
vt -1.058129 1.100306
vt -0.661378 1.100306
vt -0.661378 0.910678
vt -2.512459 1.224589
vt -2.505718 1.652819
vt -4.279609 1.224589
vt -2.500881 1.652819
vt -4.291186 1.224589
vn 0.239558 0.573113 -0.783679
vn 0.120318 0.851959 -0.509597
vn 0.173816 0.417538 -0.891880
vn 0.082104 0.588482 -0.804330
vn 0.000607 0.961937 0.273271
vn 0.137796 0.963017 0.231541
vn 0.000691 0.950356 0.311165
vn 0.136457 0.953018 0.270436
vn 0.002224 -0.000004 0.999997
vn 0.002222 0.000000 0.999997
vn -0.002222 0.000001 -0.999997
vn 0.002222 0.000000 0.999998
vn -0.002223 0.000002 -0.999998
vn -0.002222 0.000001 -0.999998
vn -0.002221 0.000002 -0.999998
vn -0.002221 0.000000 -0.999997
vn -0.002221 0.000002 -0.999997
vn 0.002221 0.000000 0.999997
vn 0.000520 0.972222 0.234062
vn 0.000519 0.972222 0.234062
vn -0.386598 0.922248 0.000859
vn 0.000566 0.966964 0.254912
vn -0.366089 0.874996 0.316798
vn 0.000000 1.000000 0.000000
vn -0.375130 0.896143 0.237077
vn 0.338792 0.807221 -0.483337
vn 0.141127 0.989991 -0.000314
vn 0.000755 0.940550 0.339655
vn 0.134935 0.941753 0.308049
vn -0.002223 0.000000 -0.999997
vn -0.002223 0.000000 -0.999998
vn -0.002223 0.000001 -0.999998
vn -0.999998 0.000000 0.002222
vn -0.999997 0.000000 0.002222
vn 0.999997 0.000000 -0.002224
vn 0.999998 0.000000 -0.002223
vn 0.999998 0.000001 -0.002223
vn -0.999998 0.000000 0.002223
vn -0.999997 0.000000 0.002223
vn 0.002223 -0.000002 0.999998
vn 0.002222 -0.000002 0.999997
vn 0.002222 -0.000004 0.999997
vn -0.002223 0.000001 -0.999997
vn 0.002222 -0.000002 0.999998
vn 0.002222 -0.000001 0.999998
vn 0.002221 -0.000001 0.999998
vn 0.002221 0.000000 0.999998
vn 0.002220 0.000000 0.999998
vn 0.002223 -0.000001 0.999997
vn 0.002222 -0.000001 0.999997
vn 0.999997 0.000000 -0.002223
vn 0.002223 -0.000001 0.999998
vn -0.002224 0.000001 -0.999998
vn -0.002224 0.000002 -0.999998
vn 0.002224 -0.000002 0.999998
vn 0.386354 0.922351 -0.000514
vn 0.384511 0.923120 -0.000066
vn 0.384510 0.923120 -0.000509
vn 0.383582 0.923507 -0.000063
vn 0.386355 0.922350 -0.000071
vn 0.384513 0.923120 0.000378
vn 0.384512 0.923120 -0.000066
vn 0.383582 0.923507 0.000381
vn 0.386354 0.922350 -0.000859
vn 0.384512 0.923120 -0.000510
vn 0.384511 0.923120 -0.000855
vn 0.383581 0.923507 -0.000507
vn 0.382704 0.923871 -0.000061
vn 0.383581 0.923507 -0.000063
vn 0.382705 0.923871 0.000383
vn 0.383580 0.923507 -0.000853
vn 0.382703 0.923871 -0.000505
vn 0.387321 0.921945 -0.000516
vn 0.387322 0.921944 -0.000073
vn 0.386356 0.922350 0.000373
vn 0.387321 0.921945 -0.000861
vn 0.386354 0.922350 -0.000514
vn 0.388040 0.921642 -0.000518
vn 0.388041 0.921642 -0.000075
vn 0.387323 0.921944 0.000370
vn 0.388039 0.921643 -0.000863
vn 0.387322 0.921945 -0.000516
vn -0.999998 -0.000001 0.002223
vn -0.002221 0.000001 -0.999997
vn -0.002222 0.000000 -0.999997
vn 0.002223 0.000000 0.999997
vn 0.002222 0.000001 0.999998
vn -0.002222 0.000000 -0.999998
vn -0.002223 0.000002 -0.999997
vn 0.999997 -0.000001 -0.002223
usemtl None_shingledRoof.jpg
s off
f 60/1/1 32/2/1 59/3/1
f 32/2/2 31/4/2 59/3/2
f 24/5/3 60/1/3 11/6/3
f 60/1/4 59/3/4 11/6/4
f 57/7/5 6/8/5 59/3/5
f 6/8/6 11/6/6 59/3/6
f 29/9/7 57/7/7 31/4/7
f 57/7/8 59/3/8 31/4/8
usemtl None_brick.png
f 68/10/9 74/11/9 71/12/9
f 68/10/10 71/12/10 65/13/10
f 63/14/11 69/15/11 67/16/11
f 69/15/11 73/17/11 67/16/11
f 39/18/12 68/10/12 65/13/12
f 39/18/12 65/13/12 6/19/12
f 11/20/13 63/14/13 43/21/13
f 63/14/14 67/16/14 43/21/14
f 58/22/15 5/23/15 62/24/15
f 5/23/16 40/25/16 62/24/16
f 30/26/17 58/22/17 52/27/17
f 58/22/15 62/24/15 52/27/15
f 61/28/18 39/18/18 6/19/18
f 61/28/18 6/19/18 57/29/18
f 51/30/10 61/28/10 57/29/10
f 51/30/10 57/29/10 29/31/10
usemtl None_shingledRoof.jpg
f 77/32/19 15/33/19 75/34/19
f 15/33/19 13/35/19 75/34/19
f 71/36/19 77/32/19 69/37/19
f 77/32/19 75/34/19 69/37/19
f 65/38/19 71/36/19 63/39/19
f 71/36/19 69/37/19 63/39/19
f 6/8/20 65/38/20 11/6/20
f 65/38/19 63/39/19 11/6/19
f 38/40/21 25/41/21 37/42/21
f 25/41/21 12/43/21 37/42/21
f 26/44/21 38/40/21 21/45/21
f 38/40/21 37/42/21 21/45/21
f 35/46/22 19/47/22 37/42/22
f 19/47/23 21/45/23 37/42/23
f 7/48/24 35/46/24 12/43/24
f 35/46/25 37/42/25 12/43/25
f 32/2/26 26/44/26 31/4/26
f 26/44/27 21/45/27 31/4/27
f 19/47/28 29/9/28 21/45/28
f 29/9/29 31/4/29 21/45/29
usemtl None_brick.png
f 90/49/30 48/50/30 52/27/30
f 90/49/31 52/27/31 94/51/31
f 18/52/32 90/49/32 94/51/32
f 18/52/14 94/51/14 28/53/14
f 92/54/33 23/55/33 10/56/33
f 92/54/33 10/56/33 86/57/33
f 50/58/34 92/54/34 86/57/34
f 50/58/34 86/57/34 44/59/34
f 85/60/35 9/61/35 91/62/35
f 9/61/36 22/63/36 91/62/36
f 43/64/35 85/60/35 49/65/35
f 85/60/35 91/62/35 49/65/35
f 88/66/36 16/67/36 14/68/36
f 88/66/36 14/68/36 87/69/36
f 46/70/37 88/66/37 87/69/37
f 46/70/36 87/69/36 45/71/36
f 86/57/38 10/56/38 3/72/38
f 86/57/38 3/72/38 83/73/38
f 44/59/38 86/57/38 83/73/38
f 44/59/39 83/73/39 41/74/39
f 80/75/40 46/76/40 15/77/40
f 80/75/40 15/77/40 77/78/40
f 74/11/41 80/75/41 77/78/41
f 74/11/42 77/78/42 71/12/42
f 75/79/43 13/80/43 45/81/43
f 75/79/43 45/81/43 79/82/43
usemtl None_blackWindow.jpg
f 104/83/44 80/84/44 102/85/44
f 80/84/45 74/86/45 102/85/45
f 100/87/44 68/88/44 81/89/44
f 68/88/44 39/90/44 81/89/44
f 81/89/44 39/90/44 97/91/44
f 39/90/46 61/92/46 97/91/46
f 95/93/47 33/94/47 89/95/47
f 33/94/45 17/96/45 89/95/45
f 53/97/48 95/93/48 47/98/48
f 95/93/46 89/95/46 47/98/46
f 89/95/49 17/96/49 93/99/49
f 17/96/10 27/100/10 93/99/10
f 47/98/50 89/95/50 51/101/50
f 89/95/49 93/99/49 51/101/49
usemtl None_brick.png
f 4/102/38 130/103/38 84/104/38
f 130/103/38 140/105/38 84/104/38
f 84/104/38 140/105/38 42/106/38
f 140/105/38 137/107/38 42/106/38
f 129/108/36 1/109/36 139/110/36
f 1/109/51 82/111/51 139/110/51
f 139/110/36 82/111/36 136/112/36
f 82/111/36 40/113/36 136/112/36
f 42/106/38 137/107/38 132/114/38
f 42/106/38 132/114/38 8/115/38
f 136/112/36 40/113/36 131/116/36
f 40/113/36 5/117/36 131/116/36
f 118/118/38 106/119/38 128/120/38
f 106/119/39 116/121/39 128/120/39
f 88/122/40 46/76/40 104/123/40
f 46/76/40 80/75/40 104/123/40
f 16/124/45 88/125/45 78/126/45
f 88/125/52 104/127/52 78/126/52
f 78/128/45 104/123/45 72/129/45
f 104/123/50 102/130/50 72/129/50
f 87/131/32 14/132/32 76/133/32
f 87/131/53 76/133/53 103/134/53
f 45/81/54 87/131/54 103/134/54
f 45/81/32 103/134/32 79/82/32
f 103/134/14 76/133/14 70/135/14
f 103/134/14 70/135/14 101/136/14
f 79/82/14 103/134/14 101/136/14
f 79/82/14 101/136/14 73/17/14
f 102/130/52 74/11/52 100/137/52
f 74/11/55 68/10/55 100/137/55
f 72/129/52 102/130/52 66/138/52
f 102/130/49 100/137/49 66/138/49
f 101/136/14 70/135/14 64/139/14
f 101/136/14 64/139/14 99/140/14
f 73/17/14 101/136/14 99/140/14
f 73/17/14 99/140/14 67/16/14
usemtl None_shingledRoof.jpg
f 146/141/56 122/142/56 126/143/56
f 146/141/57 126/143/57 150/144/57
f 134/145/58 146/141/58 150/144/58
f 134/145/59 150/144/59 138/146/59
f 150/144/60 126/143/60 119/147/60
f 150/144/61 119/147/61 143/148/61
f 138/146/62 150/144/62 143/148/62
f 138/146/63 143/148/63 131/149/63
f 144/150/21 120/151/21 123/152/21
f 144/150/21 123/152/21 147/153/21
f 132/154/21 144/150/21 147/153/21
f 132/154/21 147/153/21 135/155/21
f 147/153/21 123/152/21 121/156/21
f 147/153/21 121/156/21 145/157/21
f 135/155/21 147/153/21 145/157/21
f 135/155/21 145/157/21 133/158/21
f 145/157/64 121/156/64 122/142/64
f 145/157/65 122/142/65 146/141/65
f 133/158/66 145/157/66 146/141/66
f 133/158/67 146/141/67 134/145/67
f 30/159/67 134/145/67 138/146/67
f 30/159/68 138/146/68 58/160/68
f 58/160/69 138/146/69 131/149/69
f 58/160/70 131/149/70 5/161/70
f 8/162/21 132/154/21 135/155/21
f 8/162/21 135/155/21 36/163/21
f 36/163/21 135/155/21 133/158/21
f 36/163/21 133/158/21 20/164/21
f 20/164/71 133/158/71 134/145/71
f 20/164/72 134/145/72 30/159/72
f 122/142/73 110/165/73 114/166/73
f 122/142/60 114/166/60 126/143/60
f 126/143/74 114/166/74 107/167/74
f 126/143/75 107/167/75 119/147/75
f 120/151/21 108/168/21 111/169/21
f 120/151/21 111/169/21 123/152/21
f 123/152/21 111/169/21 109/170/21
f 123/152/21 109/170/21 121/156/21
f 121/156/76 109/170/76 110/165/76
f 121/156/77 110/165/77 122/142/77
f 110/165/78 32/2/78 60/1/78
f 110/165/74 60/1/74 114/166/74
f 114/166/79 60/1/79 24/5/79
f 114/166/80 24/5/80 107/167/80
f 108/168/21 25/41/21 38/40/21
f 108/168/21 38/40/21 111/169/21
f 111/169/21 38/40/21 26/44/21
f 111/169/21 26/44/21 109/170/21
f 109/170/81 26/44/81 32/2/81
f 109/170/82 32/2/82 110/165/82
usemtl None_brick.png
f 105/171/51 117/172/51 115/173/51
f 117/172/36 127/174/36 115/173/36
f 125/175/39 113/176/39 108/177/39
f 125/175/39 108/177/39 120/178/39
f 112/179/51 124/180/51 107/181/51
f 124/180/51 119/182/51 107/181/51
f 106/119/39 23/55/39 92/54/39
f 106/119/38 92/54/38 116/121/38
f 116/121/38 92/54/38 50/58/38
f 116/121/83 50/58/83 113/176/83
f 22/63/51 105/171/51 91/62/51
f 105/171/51 115/173/51 91/62/51
f 91/62/36 115/173/36 49/65/36
f 115/173/51 112/179/51 49/65/51
f 113/176/38 50/58/38 25/183/38
f 113/176/38 25/183/38 108/177/38
f 49/65/36 112/179/36 24/184/36
f 112/179/36 107/181/36 24/184/36
usemtl None_blackWindow.jpg
f 140/185/39 152/186/39 137/187/39
f 152/186/38 149/188/38 137/187/38
f 151/189/51 139/190/51 148/191/51
f 139/190/51 136/192/51 148/191/51
f 128/193/38 116/194/38 125/195/38
f 116/194/83 113/196/83 125/195/83
f 115/197/51 127/198/51 112/199/51
f 127/198/51 124/200/51 112/199/51
usemtl None_brick.png
f 142/201/39 118/118/39 152/202/39
f 118/118/39 128/120/39 152/202/39
f 130/103/38 142/201/38 140/105/38
f 142/201/38 152/202/38 140/105/38
f 152/202/38 128/120/38 149/203/38
f 128/120/38 125/175/38 149/203/38
f 141/204/51 129/108/51 151/205/51
f 129/108/51 139/110/51 151/205/51
f 117/172/36 141/204/36 127/174/36
f 141/204/36 151/205/36 127/174/36
f 127/174/36 151/205/36 124/180/36
f 151/205/36 148/206/36 124/180/36
f 149/203/38 125/175/38 120/178/38
f 149/203/38 120/178/38 144/207/38
f 137/107/38 149/203/38 144/207/38
f 137/107/38 144/207/38 132/114/38
f 148/206/51 136/112/51 143/208/51
f 136/112/51 131/116/51 143/208/51
f 124/180/36 148/206/36 119/182/36
f 148/206/36 143/208/36 119/182/36
f 66/138/45 100/137/45 2/209/45
f 100/137/45 81/210/45 2/209/45
f 99/140/11 64/139/11 9/211/11
f 99/140/11 9/211/11 85/212/11
f 67/16/14 99/140/14 85/212/14
f 67/16/14 85/212/14 43/21/14
f 82/213/32 1/214/32 56/215/32
f 82/213/11 56/215/11 98/216/11
f 40/25/14 82/213/14 98/216/14
f 40/25/84 98/216/84 62/24/84
f 98/216/14 56/215/14 28/53/14
f 98/216/14 28/53/14 94/51/14
f 62/24/11 98/216/11 94/51/11
f 62/24/85 94/51/85 52/27/85
f 2/209/49 81/210/49 55/217/49
f 81/210/50 97/218/50 55/217/50
f 97/218/45 61/28/45 93/219/45
f 61/28/45 51/30/45 93/219/45
f 55/217/49 97/218/49 27/220/49
f 97/218/10 93/219/10 27/220/10
f 84/221/14 42/222/14 96/223/14
f 42/222/30 54/224/30 96/223/30
f 4/225/43 84/221/43 34/226/43
f 84/221/11 96/223/11 34/226/11
f 96/223/30 54/224/30 90/49/30
f 54/224/31 48/50/31 90/49/31
f 34/226/11 96/223/11 18/52/11
f 96/223/32 90/49/32 18/52/32
f 83/227/10 3/228/10 95/229/10
f 3/228/86 33/230/86 95/229/86
f 41/231/87 83/227/87 53/232/87
f 83/227/12 95/229/12 53/232/12
f 69/15/14 75/79/14 79/82/14
f 69/15/14 79/82/14 73/17/14
f 42/222/31 8/233/31 54/224/31
f 8/233/30 36/234/30 54/224/30
f 54/224/88 36/234/88 48/50/88
f 36/234/88 20/235/88 48/50/88
f 7/236/12 41/231/12 53/232/12
f 7/236/12 53/232/12 35/237/12
f 35/237/48 53/232/48 19/238/48
f 53/232/48 47/239/48 19/238/48
f 48/50/88 20/235/88 30/26/88
f 48/50/89 30/26/89 52/27/89
f 19/238/12 47/239/12 29/31/12
f 47/239/12 51/30/12 29/31/12
f 25/183/33 50/58/33 44/59/33
f 25/183/33 44/59/33 12/240/33
f 11/241/35 43/64/35 24/184/35
f 43/64/36 49/65/36 24/184/36
f 15/242/90 46/70/90 45/71/90
f 15/242/51 45/71/51 13/243/51
f 12/240/39 44/59/39 41/74/39
f 12/240/39 41/74/39 7/244/39
