# Blender3D v248 OBJ File: safety.blend
# www.blender3d.org
mtllib safety.mtl
v 7.342683 -4.856696 -3.028697
v 5.044452 -4.856695 16.436117
v -5.679990 -4.856695 16.433773
v -5.675730 -4.856696 -3.029762
v 7.342685 0.290527 -3.028693
v 5.044448 0.290527 16.436121
v -5.679992 0.290527 16.433767
v -5.675733 0.290527 -3.029758
v 7.341172 -4.856696 3.880856
v -5.677244 -4.856696 3.879792
v 7.341173 0.290527 3.880861
v -5.677245 0.290527 3.879794
v 5.047198 -4.856696 3.882140
v -5.677244 -4.856696 3.879792
v 5.047198 0.290527 3.882145
v -5.677245 0.290527 3.879794
v 7.341927 -4.856696 0.426080
v -5.676487 -4.856696 0.425016
v 7.341929 2.268651 0.426084
v -5.679718 0.290702 0.425018
v -0.317769 -4.856695 16.434944
v -0.317772 2.268528 16.434944
v -0.315023 2.268528 3.880970
v -0.338181 -4.856696 -3.029326
v -0.338181 0.290527 -3.029322
v -0.339694 2.268528 3.880231
v -0.338937 2.268651 0.425455
v 5.038424 -4.856696 -3.028886
v 5.038425 0.290527 -3.028882
v 5.036913 0.290668 3.880672
v 5.037669 2.268651 0.425895
v 7.341776 -4.856696 1.117035
v -5.676639 -4.856696 1.115971
v 7.341778 1.873026 1.117039
v -5.679223 0.290667 1.115973
v -0.339089 2.268626 1.116410
v 5.037518 1.873054 1.116850
v 7.342078 -4.856696 -0.264875
v -5.676336 -4.856696 -0.265940
v 7.342080 1.873026 -0.264871
v -5.678920 0.290667 -0.265937
v -0.338786 1.873026 -0.265500
v 5.037820 1.873026 -0.265060
v 5.044448 -0.078366 16.436121
v 7.342685 -0.078366 -3.028693
v -5.679992 -0.078366 16.433767
v -5.675733 -0.078366 -3.029758
v 7.341173 -0.078366 3.880861
v -5.677245 -0.078366 3.879794
v 5.047198 -0.078366 3.882145
v -5.677245 -0.078366 3.879794
v 7.341929 -0.074821 0.426084
v -5.679588 -0.078198 0.425018
v -0.317772 1.820516 16.434944
v -0.338181 -0.078366 -3.029322
v 5.038425 -0.078366 -3.028882
v 7.341778 -0.075354 1.117039
v -5.679120 -0.078231 1.115973
v 7.342080 -0.077094 -0.264872
v -5.678817 -0.078231 -0.265937
v 5.044449 -1.140778 16.436121
v 7.342685 -1.140779 -3.028694
v -5.679992 -1.140778 16.433767
v -5.675733 -1.140779 -3.029759
v 7.341173 -1.140779 3.880860
v -5.677245 -1.140779 3.879794
v 5.047198 -1.140779 3.882144
v -5.677245 -1.140779 3.879794
v 7.341929 -1.137659 0.426083
v -5.679216 -1.140630 0.425018
v -0.317772 0.530237 16.434944
v -0.338181 -1.140779 -3.029323
v 5.038425 -1.140779 -3.028883
v 7.341778 -1.138128 1.117038
v -5.678822 -1.140660 1.115973
v 7.342080 -1.139659 -0.264872
v -5.678519 -1.140660 -0.265938
v 5.046841 -4.856696 5.514157
v -5.677601 -4.856696 5.511809
v 5.046841 0.290527 5.514162
v -5.677602 0.290527 5.511811
v -0.315381 2.268528 5.512986
v 5.046841 -0.078366 5.514162
v -5.677602 -0.078366 5.511811
v 5.046841 -1.140779 5.514162
v -5.677602 -1.140779 5.511810
v 5.045551 -4.856695 11.412015
v -5.678891 -4.856695 11.409670
v 5.045548 0.290527 11.412020
v -5.678893 0.290527 11.409667
v -0.316672 2.268528 11.410844
v 5.045549 -0.078366 11.412020
v -5.678893 -0.078366 11.409667
v 5.045549 -1.140778 11.412020
v -5.678893 -1.140778 11.409668
v 5.045182 -4.856695 13.095088
v -5.679259 -4.856695 13.092744
v 5.045179 0.290527 13.095093
v -5.679261 0.290527 13.092740
v -0.317041 2.268528 13.093917
v 5.045180 -0.078366 13.095093
v -5.679261 -0.078366 13.092740
v 5.045180 -1.140778 13.095093
v -5.679261 -1.140778 13.092740
vt -2.061783 -0.876704
vt -3.324787 -0.876704
vt -3.324785 0.528019
vt -2.061782 0.528019
vt -1.425533 -0.876704
vt -1.425532 0.528019
vt -3.324785 0.929641
vt -2.061782 0.929641
vt 0.246919 0.473564
vt 0.208749 0.473564
vt 0.208749 0.497657
vt 0.246919 0.497657
vt -2.062669 -0.876704
vt -1.426420 -0.876704
vt -1.426422 0.528019
vt -2.062671 0.528019
vt -3.325674 -0.876704
vt -3.325675 0.528019
vt 0.208696 0.473564
vt 0.246865 0.473564
vt 0.246865 0.497657
vt 0.208696 0.497657
vt -2.062671 0.929641
vt -3.325675 0.929641
vt -3.324785 1.069093
vt -2.061782 1.069093
vt -1.425532 0.929641
vt -1.425532 1.069093
vt -1.426422 0.929641
vt -1.426422 1.069093
vt -2.062671 1.069093
vt -3.325675 1.069093
vt 20.503542 -29.960381
vt 20.505302 -21.948612
vt -5.019950 -21.943016
vt -5.021706 -29.954782
vt 20.500063 -45.864357
vt -5.025182 -45.858749
vt -30.545206 -21.937416
vt -30.546959 -29.949183
vt -30.550434 -45.853149
vt 0.804026 -0.876704
vt 0.804026 0.528019
vt 0.804026 0.929641
vt 0.803139 -0.876704
vt 0.803137 0.528019
vt 0.803137 0.929641
vt 0.804026 1.069093
vt 0.803137 1.069093
vt 20.511454 6.126384
vt -5.013801 6.131975
vt -30.539063 6.137576
vt 1.420975 -0.876704
vt 1.420975 0.528019
vt 0.417684 0.473564
vt 0.380673 0.473564
vt 0.380673 0.497657
vt 0.417684 0.497657
vt 1.420088 -0.876704
vt 1.420086 0.528019
vt 1.420086 0.929641
vt 1.420975 0.929641
vt 1.420975 1.069093
vt 1.420086 1.069093
vt 20.513165 13.895123
vt -5.012099 13.900704
vt -30.537363 13.906305
vt 4.032983 0.528019
vt 4.032985 -0.876704
vt 2.988181 -0.876704
vt 2.988180 0.528064
vt 4.032982 0.929641
vt 2.988180 0.929692
vt 0.517799 0.343757
vt 0.517799 0.191073
vt 0.493967 0.191073
vt 0.493967 0.343758
vt 0.517799 0.496442
vt 0.493967 0.496443
vt 4.032581 0.528019
vt 4.032579 0.929641
vt 2.987776 0.528443
vt 2.987776 0.930122
vt 4.032582 -0.876704
vt 2.987779 -0.876704
vt 0.511679 0.397281
vt 0.511679 0.497686
vt 0.496009 0.397307
vt 0.496009 0.497738
vt 0.511679 0.296875
vt 0.496009 0.296875
vt 0.470136 0.191073
vt 0.470136 0.343757
vt 0.470136 0.496442
vt 2.465779 0.528064
vt 2.465779 -0.876704
vt 2.465777 0.929692
vt 0.480339 0.497726
vt 0.480339 0.397300
vt 0.480340 0.296875
vt 2.465375 0.529021
vt 2.465375 0.930780
vt 1.420572 0.929641
vt 1.420572 0.528019
vt 2.465377 -0.876704
vt 1.420573 -0.876704
vt -0.166981 0.540072
vt -0.166981 1.025071
vt 2.287480 0.540072
vt 2.287480 1.025071
vt -0.166981 -1.156271
vt 2.287479 -1.156271
vt 3.339392 0.540072
vt 3.339392 1.025071
vt 3.339391 -1.156271
vt -2.603613 0.540072
vt -2.603613 1.025071
vt -2.603612 -1.156271
vt -2.605557 0.540072
vt -2.605556 -1.156272
vt -0.157663 -1.156272
vt -0.157664 1.302902
vt -2.605557 1.025071
vt -0.157664 1.891923
vt 2.290229 0.540072
vt 2.290231 -1.156272
vt 2.290229 1.025071
vt 2.291485 0.540072
vt 2.291485 -1.156271
vt 3.338701 -1.156271
vt 3.338701 0.540072
vt 2.291485 1.025071
vt 3.338701 1.025071
vt 4.032982 1.069093
vt 2.988180 1.069147
vt 2.726978 0.929705
vt 2.726978 1.069160
vt 4.032579 1.069093
vt 2.987776 1.667323
vt 2.726575 0.930981
vt 2.726575 1.816881
vt 2.465777 1.069147
vt 2.465375 1.667323
vt 1.420572 1.069093
vt -0.166981 1.193473
vt 2.287480 1.193473
vt 3.339392 1.193473
vt -2.603613 1.193473
vt -2.605557 1.193473
vt -0.157664 2.096445
vt 2.290229 1.193473
vt 2.291485 1.193473
vt 3.338701 1.193473
vt 31.437265 33.635757
vt 31.440140 46.792107
vt 20.471399 46.792992
vt 20.468523 33.636658
vt 31.436548 30.346670
vt 20.467804 30.347572
vt -5.122337 46.795113
vt -5.125217 33.638756
vt -5.125932 30.349665
vt -30.530169 46.797173
vt -30.545340 33.640823
vt -30.549128 30.351742
vt 31.435825 27.057581
vt 20.467073 27.058483
vt 31.432951 13.901234
vt 20.464197 13.902125
vt -5.126656 27.060570
vt -5.129537 13.904225
vt -30.546774 27.062653
vn -1.000000 -0.000000 -0.000219
vn -1.000000 -0.000001 -0.000219
vn 1.000000 0.000001 0.000219
vn 1.000000 0.000000 0.000219
vn 0.346082 0.938204 0.000076
vn -0.346082 0.938204 -0.000076
vn -0.999999 -0.000588 -0.001008
vn -0.999999 -0.000000 -0.001008
vn -0.999999 -0.000281 -0.001116
vn -1.000000 -0.000588 -0.000219
vn -0.999999 -0.000734 -0.001008
vn -0.999999 -0.000281 -0.001008
vn -0.999999 -0.000351 -0.001116
vn 1.000000 -0.000001 0.000219
vn 1.000000 -0.000000 0.000218
vn -1.000000 -0.000734 -0.000219
vn -1.000000 -0.000588 0.000570
vn -1.000000 -0.000351 0.000678
vn -1.000000 -0.000280 0.000570
vn -1.000000 -0.000000 0.000571
vn -1.000000 -0.000280 0.000678
vn 1.000000 -0.000001 0.000218
vn 0.000082 0.000000 -1.000000
vn 0.000082 0.000001 -1.000000
vn -0.000218 0.000002 1.000000
vn -0.000219 -0.000000 1.000000
vn -0.000219 -0.000001 1.000000
vn 0.000560 -0.000001 1.000000
vn 0.000560 -0.000000 1.000000
vn -0.999999 0.000000 -0.001116
vn -0.999999 -0.000279 -0.001153
vn -0.999999 -0.000279 -0.001116
vn -0.999999 -0.000350 -0.001154
vn -1.000000 -0.000350 0.000716
vn -1.000000 -0.000279 0.000678
vn -1.000000 -0.000279 0.000715
vn -1.000000 0.000000 0.000678
vn 0.000041 0.867814 -0.496890
vn -0.284104 0.958793 -0.000376
vn -0.249000 0.840457 -0.481280
vn -0.347296 0.937756 -0.000448
vn -0.000041 0.867814 0.496890
vn -0.000030 0.867829 0.496863
vn -0.000030 0.867814 0.496890
vn 0.000012 0.867829 0.496863
vn -0.000041 0.867829 0.496863
vn 0.073374 0.997304 0.000052
vn 0.063678 0.866062 0.495865
vn 0.345245 0.938513 0.000109
vn -0.347296 0.937756 -0.000043
vn -0.347335 0.937741 0.000296
vn -0.347335 0.937741 -0.000043
vn -0.347489 0.937684 0.000296
usemtl None_brick.png
s off
f 97/1/1 3/2/1 63/3/1
f 97/1/2 63/3/2 104/4/2
f 88/5/2 97/1/2 104/4/2
f 88/5/2 104/4/2 95/6/2
f 104/4/1 63/3/1 46/7/1
f 104/4/1 46/7/1 102/8/1
usemtl None_blackWindow.jpg
f 95/9/1 104/10/1 102/11/1
f 95/9/1 102/11/1 93/12/1
usemtl None_brick.png
f 96/13/3 87/14/3 94/15/3
f 96/13/3 94/15/3 103/16/3
f 2/17/3 96/13/3 103/16/3
f 2/17/3 103/16/3 61/18/3
usemtl None_blackWindow.jpg
f 103/19/4 94/20/4 92/21/4
f 103/19/4 92/21/4 101/22/4
usemtl None_brick.png
f 61/18/4 103/16/4 101/23/4
f 61/18/3 101/23/3 44/24/3
f 102/8/1 46/7/1 7/25/1
f 102/8/1 7/25/1 99/26/1
f 93/27/1 102/8/1 99/26/1
f 93/27/1 99/26/1 90/28/1
f 101/23/3 92/29/3 89/30/3
f 101/23/3 89/30/3 98/31/3
f 44/24/3 101/23/3 98/31/3
f 44/24/4 98/31/4 6/32/4
usemtl None_shingledRoof.jpg
f 98/33/5 89/34/5 91/35/5
f 98/33/5 91/35/5 100/36/5
f 6/37/5 98/33/5 100/36/5
f 6/37/5 100/36/5 22/38/5
f 100/36/6 91/35/6 90/39/6
f 100/36/6 90/39/6 99/40/6
f 22/38/6 100/36/6 99/40/6
f 22/38/6 99/40/6 7/41/6
usemtl None_brick.png
f 79/42/2 88/5/2 95/6/2
f 79/42/1 95/6/1 86/43/1
f 86/43/1 95/6/1 84/44/1
f 95/6/1 93/27/1 84/44/1
f 87/14/4 78/45/4 85/46/4
f 87/14/3 85/46/3 94/15/3
f 94/15/4 85/46/4 83/47/4
f 94/15/4 83/47/4 92/29/4
f 84/44/1 93/27/1 90/28/1
f 84/44/1 90/28/1 81/48/1
f 92/29/4 83/47/4 80/49/4
f 92/29/3 80/49/3 89/30/3
usemtl None_shingledRoof.jpg
f 89/34/5 80/50/5 82/51/5
f 89/34/5 82/51/5 91/35/5
f 91/35/6 82/51/6 81/52/6
f 91/35/6 81/52/6 90/39/6
usemtl None_brick.png
f 14/53/1 79/42/1 68/54/1
f 79/42/1 86/43/1 68/54/1
usemtl None_blackWindow.jpg
f 68/55/1 86/56/1 84/57/1
f 68/55/1 84/57/1 51/58/1
usemtl None_brick.png
f 78/45/4 13/59/4 67/60/4
f 78/45/4 67/60/4 85/46/4
f 85/46/4 67/60/4 50/61/4
f 85/46/4 50/61/4 83/47/4
f 51/62/1 84/44/1 81/48/1
f 51/62/1 81/48/1 16/63/1
f 83/47/4 50/61/4 15/64/4
f 83/47/4 15/64/4 80/49/4
usemtl None_shingledRoof.jpg
f 80/50/5 15/65/5 23/66/5
f 80/50/5 23/66/5 82/51/5
f 82/51/6 23/66/6 16/67/6
f 82/51/6 16/67/6 81/52/6
usemtl None_brick.png
f 64/68/2 4/69/2 39/70/2
f 64/68/7 39/70/7 77/71/7
f 47/72/8 64/68/8 77/71/8
f 47/72/9 77/71/9 60/73/9
usemtl None_blackWindow.jpg
f 77/74/10 39/75/10 18/76/10
f 77/74/11 18/76/11 70/77/11
f 60/78/12 77/74/12 70/77/12
f 60/78/13 70/77/13 53/79/13
usemtl None_brick.png
f 62/80/4 45/81/4 76/82/4
f 45/81/4 59/83/4 76/82/4
f 1/84/14 62/80/14 38/85/14
f 62/80/14 76/82/14 38/85/14
usemtl None_blackWindow.jpg
f 76/86/4 59/87/4 69/88/4
f 59/87/15 52/89/15 69/88/15
f 38/90/14 76/86/14 17/91/14
f 76/86/14 69/88/14 17/91/14
f 70/77/16 18/76/16 33/92/16
f 70/77/17 33/92/17 75/93/17
f 53/79/18 70/77/18 58/94/18
f 70/77/19 75/93/19 58/94/19
usemtl None_brick.png
f 75/95/10 33/96/10 10/53/10
f 75/95/20 10/53/20 66/54/20
f 58/97/21 75/95/21 49/62/21
f 75/95/20 66/54/20 49/62/20
usemtl None_blackWindow.jpg
f 69/88/4 52/89/4 57/98/4
f 69/88/15 57/98/15 74/99/15
f 17/91/22 69/88/22 74/99/22
f 17/91/22 74/99/22 32/100/22
usemtl None_brick.png
f 74/101/4 57/102/4 48/103/4
f 74/101/4 48/103/4 65/104/4
f 32/105/14 74/101/14 65/104/14
f 32/105/4 65/104/4 9/106/4
f 72/107/23 55/108/23 73/109/23
f 55/108/23 56/110/23 73/109/23
f 24/111/24 72/107/24 73/109/24
f 24/111/24 73/109/24 28/112/24
f 73/109/23 56/110/23 62/113/23
f 56/110/23 45/114/23 62/113/23
f 62/113/24 1/115/24 73/109/24
f 1/115/24 28/112/24 73/109/24
f 64/116/23 47/117/23 55/108/23
f 64/116/23 55/108/23 72/107/23
f 4/118/24 64/116/24 72/107/24
f 4/118/24 72/107/24 24/111/24
f 63/119/25 3/120/25 21/121/25
f 63/119/26 21/121/26 71/122/26
f 46/123/26 63/119/26 71/122/26
f 46/123/26 71/122/26 54/124/26
f 71/122/26 21/121/26 61/125/26
f 21/121/27 2/126/27 61/125/27
f 54/124/26 71/122/26 44/127/26
f 71/122/26 61/125/26 44/127/26
f 67/128/28 13/129/28 9/130/28
f 67/128/28 9/130/28 65/131/28
f 50/132/29 67/128/29 65/131/29
f 50/132/29 65/131/29 48/133/29
f 8/134/30 47/72/30 60/73/30
f 8/134/31 60/73/31 41/135/31
f 41/135/32 60/73/32 53/136/32
f 41/135/33 53/136/33 20/137/33
f 45/81/4 5/138/4 59/83/4
f 5/138/4 40/139/4 59/83/4
f 59/83/15 40/139/15 52/140/15
f 40/139/15 19/141/15 52/140/15
f 20/137/34 53/136/34 35/142/34
f 53/136/35 58/97/35 35/142/35
f 35/142/36 58/97/36 12/63/36
f 58/97/37 49/62/37 12/63/37
f 52/140/4 19/141/4 34/143/4
f 52/140/4 34/143/4 57/102/4
f 57/102/4 34/143/4 11/144/4
f 57/102/4 11/144/4 48/103/4
f 55/108/24 25/145/24 29/146/24
f 55/108/24 29/146/24 56/110/24
f 56/110/24 29/146/24 5/147/24
f 56/110/23 5/147/23 45/114/23
f 47/117/23 8/148/23 25/145/23
f 47/117/24 25/145/24 55/108/24
f 7/149/26 46/123/26 54/124/26
f 7/149/26 54/124/26 22/150/26
f 22/150/26 54/124/26 6/151/26
f 54/124/26 44/127/26 6/151/26
f 15/152/29 50/132/29 48/133/29
f 15/152/29 48/133/29 11/153/29
usemtl None_shingledRoof.jpg
f 40/154/38 5/155/38 29/156/38
f 40/154/38 29/156/38 43/157/38
f 19/158/38 40/154/38 43/157/38
f 19/158/38 43/157/38 31/159/38
f 43/157/38 29/156/38 25/160/38
f 43/157/38 25/160/38 42/161/38
f 31/159/38 43/157/38 42/161/38
f 31/159/38 42/161/38 27/162/38
f 42/161/38 25/160/38 8/163/38
f 42/161/39 8/163/39 41/164/39
f 27/162/40 42/161/40 41/164/40
f 27/162/41 41/164/41 20/165/41
f 34/166/42 19/158/42 31/159/42
f 34/166/43 31/159/43 37/167/43
f 11/168/44 34/166/44 37/167/44
f 11/168/45 37/167/45 30/169/45
f 37/167/46 31/159/46 27/162/46
f 37/167/47 27/162/47 36/170/47
f 30/169/48 37/167/48 36/170/48
f 30/169/49 36/170/49 26/171/49
f 36/170/50 27/162/50 20/165/50
f 36/170/51 20/165/51 35/172/51
f 26/171/52 36/170/52 35/172/52
f 26/171/53 35/172/53 12/67/53
