# Blender3D v248 OBJ File: lakeWall.blend
# www.blender3d.org
mtllib lakeWall.mtl
o Cube
v 7.212905 -0.423378 -0.776920
v 7.212905 -0.423378 0.146182
v -7.212906 -0.423378 0.146182
v -7.212903 -0.423378 -0.776920
v 7.212909 4.216317 -0.776920
v 7.212901 4.216317 0.146182
v -7.212908 4.216317 0.146182
v -7.212905 4.216317 -0.776920
v 7.212909 3.636355 -0.776920
v 7.212901 3.636355 0.146182
v -7.212908 3.636355 0.146182
v -7.212904 3.636355 -0.776920
vt 0.000000 0.157684 0.0
vt 0.000000 -0.842316 0.0
vt -1.000000 -0.842316 0.0
vt 0.000000 0.157684 0.0
vt -1.000000 -0.842316 0.0
vt -1.000000 0.157685 0.0
vt 0.346231 -0.166250 0.0
vt 0.346231 1.312809 0.0
vt 0.682540 1.312809 0.0
vt 0.346231 -0.166250 0.0
vt 0.682540 1.312809 0.0
vt 0.682540 -0.166250 0.0
vt 3.639057 -0.046097 0.0
vt 3.639056 1.123544 0.0
vt -0.517132 -0.046097 0.0
vt 3.639056 1.123544 0.0
vt -0.517133 1.123544 0.0
vt -0.517132 -0.046097 0.0
vt 0.682540 -0.166250 0.0
vt 0.682539 1.312809 0.0
vt 0.346231 -0.166250 0.0
vt 0.682539 1.312809 0.0
vt 0.346231 1.312809 0.0
vt 0.346231 -0.166250 0.0
vt 1.059575 0.515996 0.0
vt 1.059575 0.479807 0.0
vt 0.159431 0.479807 0.0
vt 1.059575 0.515996 0.0
vt 0.159431 0.479807 0.0
vt 0.159431 0.515996 0.0
vt 0.610680 0.291230 0.0
vt 0.610680 0.434951 0.0
vt 0.898121 0.434951 0.0
vt 0.610680 0.291230 0.0
vt 0.898121 0.434951 0.0
vt 0.898121 0.291230 0.0
vt 1.476642 0.463040 0.0
vt 1.476641 0.532763 0.0
vt -0.257637 0.532763 0.0
vt 1.476642 0.463040 0.0
vt -0.257637 0.532763 0.0
vt -0.257637 0.463040 0.0
vt 0.610680 0.291230 0.0
vt 0.610680 0.434951 0.0
vt 0.323239 0.434951 0.0
vt 0.610680 0.291230 0.0
vt 0.323239 0.434951 0.0
vt 0.323239 0.291230 0.0
vt 0.884582 0.688728 0.0
vt 0.261185 0.688728 0.0
vt 0.884581 0.581672 0.0
vt 0.261185 0.688728 0.0
vt 0.261185 0.581672 0.0
vt 0.884581 0.581672 0.0
vt 3.643606 1.172434 0.0
vt 3.595921 0.010162 0.0
vt -0.475291 1.148593 0.0
vt 3.595921 0.010162 0.0
vt -0.522974 -0.013680 0.0
vt -0.475291 1.148593 0.0
vn -0.000000 -1.000000 0.000000
vn -1.000000 -0.000000 -0.000004
vn -0.000000 -0.000000 1.000000
vn 1.000000 -0.000001 0.000000
vn 1.000000 0.000001 0.000008
vn 0.000000 0.000000 -1.000000
vn -1.000000 -0.000000 -0.000003
vn -1.000000 -0.000001 -0.000004
vn 1.000000 0.000000 0.000009
vn 0.000000 1.000000 0.000000
usemtl Material
s off
f 1/1/1 2/2/1 3/3/1
f 1/4/1 3/5/1 4/6/1
usemtl Material_brick.png
f 3/7/2 11/8/2 12/9/2
f 3/10/2 12/11/2 4/12/2
f 2/13/3 10/14/3 3/15/3
f 10/16/3 11/17/3 3/18/3
f 1/19/4 9/20/4 2/21/4
f 9/22/5 10/23/5 2/24/5
usemtl Material_buildingTop.jpg
f 5/25/6 9/26/6 12/27/6
f 5/28/6 12/29/6 8/30/6
f 11/31/7 7/32/7 8/33/7
f 11/34/8 8/35/8 12/36/8
f 10/37/3 6/38/3 7/39/3
f 10/40/3 7/41/3 11/42/3
f 9/43/9 5/44/9 6/45/9
f 9/46/5 6/47/5 10/48/5
f 5/49/10 8/50/10 6/51/10
f 8/52/10 7/53/10 6/54/10
usemtl Material_brick.png
f 9/55/6 1/56/6 12/57/6
f 1/58/6 4/59/6 12/60/6
